<mxfile host="app.diagrams.net" modified="2023-08-23T11:05:50.565Z" agent="Mozilla/5.0 (Macintosh; Intel Mac OS X 10_15_7) AppleWebKit/605.1.15 (KHTML, like Gecko) Version/16.6 Safari/605.1.15" version="21.6.9" etag="QZlXXlViHodTIKi0qo_8" type="github">
  <diagram name="第 1 页" id="YDtzo6zc_IUqR18IoQvs">
    <mxGraphModel>
      <root>
        <mxCell id="0" />
        <mxCell id="1" parent="0" />
      </root>
    </mxGraphModel>
  </diagram>
</mxfile>
